<?xml version="1.0" encoding="UTF-8" standalone="no"?>
<!-- Created with Inkscape (http://www.inkscape.org/) -->

<svg
   xmlns:dc="http://purl.org/dc/elements/1.1/"
   xmlns:cc="http://creativecommons.org/ns#"
   xmlns:rdf="http://www.w3.org/1999/02/22-rdf-syntax-ns#"
   xmlns:svg="http://www.w3.org/2000/svg"
   xmlns="http://www.w3.org/2000/svg"
   xmlns:sodipodi="http://sodipodi.sourceforge.net/DTD/sodipodi-0.dtd"
   xmlns:inkscape="http://www.inkscape.org/namespaces/inkscape"
   width="210mm"
   height="297mm"
   viewBox="0 0 210 297"
   version="1.1"
   id="svg4677"
   inkscape:version="0.92.4 (5da689c313, 2019-01-14)"
   sodipodi:docname="admin.svg">
  <defs
     id="defs4671" />
  <sodipodi:namedview
     id="base"
     pagecolor="#ffffff"
     bordercolor="#666666"
     borderopacity="1.0"
     inkscape:pageopacity="0.0"
     inkscape:pageshadow="2"
     inkscape:zoom="0.7"
     inkscape:cx="172.40157"
     inkscape:cy="604.01474"
     inkscape:document-units="mm"
     inkscape:current-layer="layer1"
     showgrid="false"
     inkscape:window-width="1920"
     inkscape:window-height="1001"
     inkscape:window-x="-9"
     inkscape:window-y="-9"
     inkscape:window-maximized="1" />
  <metadata
     id="metadata4674">
    <rdf:RDF>
      <cc:Work
         rdf:about="">
        <dc:format>image/svg+xml</dc:format>
        <dc:type
           rdf:resource="http://purl.org/dc/dcmitype/StillImage" />
        <dc:title />
      </cc:Work>
    </rdf:RDF>
  </metadata>
  <g
     inkscape:label="Layer 1"
     inkscape:groupmode="layer"
     id="layer1">
    <g
       id="g1500"
       transform="translate(-1.889881,-19.276786)">
      <path
         transform="scale(0.26458333)"
         id="circle3713-2-1"
         d="M 399.23828,89.392578 A 355.38629,355.38629 0 0 0 43.851562,444.7793 355.38629,355.38629 0 0 0 399.23828,800.16602 355.38629,355.38629 0 0 0 459.32422,795.0332 154.7048,154.7048 0 0 1 455.73242,762.75977 154.7048,154.7048 0 0 1 610.4375,608.05664 154.7048,154.7048 0 0 1 698.55078,635.6582 355.38629,355.38629 0 0 0 754.625,444.7793 355.38629,355.38629 0 0 0 399.23828,89.392578 Z"
         style="fill:none;stroke:#f3cd74;stroke-width:29.61637878;stroke-linecap:round;stroke-miterlimit:10;stroke-dasharray:none;stroke-opacity:1"
         inkscape:connector-curvature="0" />
      <path
         style="fill:none;stroke-width:3.91788721"
         d="M 7.6845799,19.73397 H 203.57893 V 215.62833 H 7.6845799 Z"
         id="rect3715-4-6"
         inkscape:connector-curvature="0" />
      <path
         id="path3717-7-0"
         transform="scale(0.26458333)"
         d="m 397.8457,184.0293 c -131.10794,2.41366 -146.92155,99.00517 -118.17968,209.61914 -5.10868,3.10964 -13.52068,13.00132 -11.41797,30.57812 3.93886,32.73997 17.32651,41.03256 25.82617,41.72852 3.25771,30.53359 23.39509,66.70753 34.23437,72.3789 0,21.81185 0.81428,38.4717 -1.34765,62.3418 -18.67259,50.19833 -114.56688,54.12273 -169.88867,102.5293 57.83911,58.23893 151.57242,99.89258 250.48828,99.89258 17.06713,0 34.65058,-2.32611 52.16406,-6.28321 a 154.7048,154.7048 0 0 1 -3.99219,-34.05468 154.7048,154.7048 0 0 1 59.96289,-122.20313 c -20.61063,-10.18784 -36.81914,-22.14145 -43.41015,-39.88086 -2.16193,-23.8701 -1.33399,-40.52995 -1.33399,-62.3418 10.80968,-5.67137 30.17867,-41.83049 33.45117,-72.3789 8.49967,-0.69596 21.90212,-8.98855 25.82618,-41.72852 2.11748,-17.5768 -6.29452,-27.46848 -11.41797,-30.57812 13.83042,-41.595 42.55687,-170.2749 -53.13086,-183.57227 -9.84718,-17.29546 -35.06442,-26.04687 -67.83399,-26.04687 z"
         style="fill:#f3cd74;fill-opacity:1;stroke-width:14.8077631"
         inkscape:connector-curvature="0" />
      <path
         inkscape:connector-curvature="0"
         id="path27"
         d="m 202.82164,201.81375 a 40.932312,40.932312 0 0 1 -40.93231,40.93231 40.932312,40.932312 0 0 1 -40.93231,-40.93231 40.932312,40.932312 0 0 1 40.93231,-40.93232 40.932312,40.932312 0 0 1 40.93231,40.93232 z"
         style="fill:none;stroke:#f3cd74;stroke-width:7.83599997;stroke-miterlimit:4;stroke-dasharray:none;stroke-opacity:1" />
      <path
         id="path29"
         d="m 160.18945,214.3932 -3.61178,-3.61177 12.42994,-12.43156 c 4.51636,2.43454 10.2431,1.79588 14.06115,-2.01533 4.64934,-4.65601 4.64934,-12.20545 0,-16.8548 -4.65616,-4.656 -12.20559,-4.656 -16.86144,0 -3.81139,3.81123 -4.44649,9.54479 -2.01372,14.0545 l -24.47234,24.47737 c -1.32529,1.32383 -1.32529,3.49197 0,4.81564 1.3238,1.3238 3.49197,1.3238 4.81562,0 l 3.61177,3.61176 c 0.66635,0.66487 1.74272,0.66487 2.40775,0 l 2.40789,-2.40788 c 0.66634,-0.66488 0.66634,-1.74275 0,-2.40775 l -3.61177,-3.61177 2.40789,-2.41454 3.61339,3.61827 c 0.66486,0.66634 1.74272,0.66634 2.40776,0 l 2.40789,-2.40774 c 0.66635,-0.67229 0.66635,-1.74258 0,-2.4144 z m 10.83349,-30.09768 c 1.99549,-1.99549 5.23471,-1.99549 7.23018,0 1.98884,1.98883 1.98884,5.23469 0,7.22352 -1.99547,1.98868 -5.23469,1.98868 -7.23018,0 -1.98883,-1.98883 -1.98883,-5.23483 0,-7.22352 z"
         inkscape:connector-curvature="0"
         style="fill:#f3cd74;fill-opacity:1;stroke-width:0.10642295" />
    </g>
    <flowRoot
       xml:space="preserve"
       id="flowRoot1502"
       style="fill:black;fill-opacity:1;stroke:none;font-family:sans-serif;font-style:normal;font-weight:normal;font-size:16px;line-height:1.25;letter-spacing:0px;word-spacing:0px"><flowRegion
         id="flowRegion1504"><rect
           id="rect1506"
           width="584.28571"
           height="104.28571"
           x="157.14285"
           y="849.66254" /></flowRegion><flowPara
         id="flowPara1508"></flowPara></flowRoot>    <g
       aria-label="ADMIN"
       transform="matrix(0.26458333,0,0,0.26458333,0,10.583333)"
       style="font-style:normal;font-weight:normal;font-size:16px;line-height:1.25;font-family:sans-serif;letter-spacing:0px;word-spacing:0px;fill:#f3cd74;fill-opacity:1;stroke:none"
       id="flowRoot1510">
      <path
         d="m 215.14908,888.07096 -14.27083,38.69792 H 229.472 Z m -5.9375,-10.36458 h 11.92709 l 29.63541,77.76042 h -10.9375 l -7.08333,-19.94792 h -35.05209 l -7.08333,19.94792 h -11.09375 z"
         style="font-size:106.66667175px;text-align:center;letter-spacing:20px;text-anchor:middle;fill:#f3cd74;fill-opacity:1"
         id="path1518"
         inkscape:connector-curvature="0" />
      <path
         d="m 292.597,886.35221 v 60.46876 h 12.70834 q 16.09375,0 23.54166,-7.29167 7.5,-7.29167 7.5,-23.02083 0,-15.625 -7.5,-22.86459 -7.44791,-7.29167 -23.54166,-7.29167 z m -10.52083,-8.64583 h 21.61458 q 22.60417,0 33.17709,9.42708 10.57292,9.37501 10.57292,29.37501 0,20.10416 -10.62501,29.53125 -10.625,9.42708 -33.125,9.42708 h -21.61458 z"
         style="font-size:106.66667175px;text-align:center;letter-spacing:20px;text-anchor:middle;fill:#f3cd74;fill-opacity:1"
         id="path1520"
         inkscape:connector-curvature="0" />
      <path
         d="m 384.1595,877.70638 h 15.67708 l 19.84375,52.91667 19.94792,-52.91667 h 15.67708 v 77.76042 h -10.26041 v -68.28125 l -20.05209,53.33333 H 414.41992 L 394.36783,887.18555 V 955.4668 H 384.1595 Z"
         style="font-size:106.66667175px;text-align:center;letter-spacing:20px;text-anchor:middle;fill:#f3cd74;fill-opacity:1"
         id="path1522"
         inkscape:connector-curvature="0" />
      <path
         d="m 496.24284,877.70638 h 10.52083 v 77.76042 h -10.52083 z"
         style="font-size:106.66667175px;text-align:center;letter-spacing:20px;text-anchor:middle;fill:#f3cd74;fill-opacity:1"
         id="path1524"
         inkscape:connector-curvature="0" />
      <path
         d="m 547.70118,877.70638 h 14.16667 l 34.47917,65.05209 v -65.05209 h 10.20833 v 77.76042 h -14.16666 l -34.47917,-65.05209 v 65.05209 h -10.20834 z"
         style="font-size:106.66667175px;text-align:center;letter-spacing:20px;text-anchor:middle;fill:#f3cd74;fill-opacity:1"
         id="path1526"
         inkscape:connector-curvature="0" />
    </g>
  </g>
</svg>
