<?xml version="1.0" encoding="UTF-8" standalone="no"?>
<!-- Created with Inkscape (http://www.inkscape.org/) -->

<svg
   xmlns:dc="http://purl.org/dc/elements/1.1/"
   xmlns:cc="http://creativecommons.org/ns#"
   xmlns:rdf="http://www.w3.org/1999/02/22-rdf-syntax-ns#"
   xmlns:svg="http://www.w3.org/2000/svg"
   xmlns="http://www.w3.org/2000/svg"
   xmlns:sodipodi="http://sodipodi.sourceforge.net/DTD/sodipodi-0.dtd"
   xmlns:inkscape="http://www.inkscape.org/namespaces/inkscape"
   width="210mm"
   height="297mm"
   viewBox="0 0 210 297"
   version="1.1"
   id="svg4677"
   inkscape:version="0.92.4 (5da689c313, 2019-01-14)"
   sodipodi:docname="client.svg">
  <defs
     id="defs4671" />
  <sodipodi:namedview
     id="base"
     pagecolor="#ffffff"
     bordercolor="#666666"
     borderopacity="1.0"
     inkscape:pageopacity="0.0"
     inkscape:pageshadow="2"
     inkscape:zoom="0.7"
     inkscape:cx="172.40157"
     inkscape:cy="608.7406"
     inkscape:document-units="mm"
     inkscape:current-layer="layer1"
     showgrid="false"
     inkscape:window-width="1920"
     inkscape:window-height="1001"
     inkscape:window-x="-9"
     inkscape:window-y="-9"
     inkscape:window-maximized="1" />
  <metadata
     id="metadata4674">
    <rdf:RDF>
      <cc:Work
         rdf:about="">
        <dc:format>image/svg+xml</dc:format>
        <dc:type
           rdf:resource="http://purl.org/dc/dcmitype/StillImage" />
        <dc:title />
      </cc:Work>
    </rdf:RDF>
  </metadata>
  <g
     inkscape:label="Layer 1"
     inkscape:groupmode="layer"
     id="layer1">
    <g
       id="g2103"
       transform="translate(-2.6458333,-19.654762)">
      <path
         transform="scale(0.26458333)"
         id="circle3713-2-1"
         d="M 399.23828,89.392578 A 355.38629,355.38629 0 0 0 43.851562,444.7793 355.38629,355.38629 0 0 0 399.23828,800.16602 355.38629,355.38629 0 0 0 459.32422,795.0332 154.7048,154.7048 0 0 1 455.73242,762.75977 154.7048,154.7048 0 0 1 610.4375,608.05664 154.7048,154.7048 0 0 1 698.55078,635.6582 355.38629,355.38629 0 0 0 754.625,444.7793 355.38629,355.38629 0 0 0 399.23828,89.392578 Z"
         style="fill:none;stroke:#f3cd74;stroke-width:29.61637878;stroke-linecap:round;stroke-miterlimit:10;stroke-dasharray:none;stroke-opacity:1"
         inkscape:connector-curvature="0" />
      <path
         style="fill:none;stroke-width:3.91788721"
         d="M 7.6845799,19.73397 H 203.57893 V 215.62833 H 7.6845799 Z"
         id="rect3715-4-6"
         inkscape:connector-curvature="0" />
      <path
         id="path3717-7-0"
         transform="scale(0.26458333)"
         d="m 397.8457,184.0293 c -131.10794,2.41366 -146.92155,99.00517 -118.17968,209.61914 -5.10868,3.10964 -13.52068,13.00132 -11.41797,30.57812 3.93886,32.73997 17.32651,41.03256 25.82617,41.72852 3.25771,30.53359 23.39509,66.70753 34.23437,72.3789 0,21.81185 0.81428,38.4717 -1.34765,62.3418 -18.67259,50.19833 -114.56688,54.12273 -169.88867,102.5293 57.83911,58.23893 151.57242,99.89258 250.48828,99.89258 17.06713,0 34.65058,-2.32611 52.16406,-6.28321 a 154.7048,154.7048 0 0 1 -3.99219,-34.05468 154.7048,154.7048 0 0 1 59.96289,-122.20313 c -20.61063,-10.18784 -36.81914,-22.14145 -43.41015,-39.88086 -2.16193,-23.8701 -1.33399,-40.52995 -1.33399,-62.3418 10.80968,-5.67137 30.17867,-41.83049 33.45117,-72.3789 8.49967,-0.69596 21.90212,-8.98855 25.82618,-41.72852 2.11748,-17.5768 -6.29452,-27.46848 -11.41797,-30.57812 13.83042,-41.595 42.55687,-170.2749 -53.13086,-183.57227 -9.84718,-17.29546 -35.06442,-26.04687 -67.83399,-26.04687 z"
         style="fill:#f3cd74;fill-opacity:1;stroke-width:14.8077631"
         inkscape:connector-curvature="0" />
      <path
         inkscape:connector-curvature="0"
         id="path27"
         d="m 202.82164,201.81375 a 40.932312,40.932312 0 0 1 -40.93231,40.93231 40.932312,40.932312 0 0 1 -40.93231,-40.93231 40.932312,40.932312 0 0 1 40.93231,-40.93232 40.932312,40.932312 0 0 1 40.93231,40.93232 z"
         style="fill:none;stroke:#f3cd74;stroke-width:7.83599997;stroke-miterlimit:4;stroke-dasharray:none;stroke-opacity:1" />
      <g
         transform="translate(-2.7403274,0.28348214)"
         id="g5442">
        <path
           style="fill:#f3cd74;fill-opacity:1;stroke:none;stroke-width:0.26458332px;stroke-linecap:butt;stroke-linejoin:miter;stroke-opacity:1"
           d="m 177.55431,182.85118 c -3.62681,-3.32687 -10.72597,-3.89808 -16.25297,-3.49627 -4.22472,0.30713 -9.17957,1.19965 -11.90625,4.44122 -2.8672,3.40862 -3.99412,8.9542 -2.45685,13.13467 1.32937,3.61511 5.02543,5.58489 8.97693,7.27604 5.36865,2.29766 15.67316,0.57697 16.15849,5.66964 0.28445,2.98475 -6.37129,3.8213 -8.97693,3.77977 -5.37189,-0.0856 -8.36607,-4.20406 -12.6622,-3.40179 -1.57303,0.29375 -3.22365,1.37285 -3.87427,2.83482 -0.63078,1.4174 -0.61791,3.66316 0.47247,4.63021 5.22601,4.63491 12.74481,4.79992 19.37128,4.53572 4.13065,-0.1647 8.75982,-0.9914 11.81176,-3.77976 2.44886,-2.23736 3.95843,-5.84997 3.87426,-9.16593 -0.0826,-3.25317 -1.85093,-6.59166 -4.25224,-8.78795 -2.95702,-2.70454 -6.84936,-3.52004 -11.24478,-4.25223 -3.61534,-0.60223 -10.94828,-0.44627 -10.86682,-4.34673 0.0974,-4.66454 5.66238,-3.084 8.78794,-3.49628 2.42089,-0.31933 4.87224,0.42107 7.27605,0.85045 2.00352,0.35788 4.90014,0.76694 6.2366,-0.85045 1.82745,-2.21158 1.10592,-4.12729 -0.47247,-5.57515 z"
           id="path5436"
           inkscape:connector-curvature="0"
           sodipodi:nodetypes="saaasssaasaaaassasss" />
        <path
           style="fill:#f3cd74;fill-opacity:1;stroke:none;stroke-width:0.26458332px;stroke-linecap:butt;stroke-linejoin:miter;stroke-opacity:1"
           d="m 160.54538,178.97693 c 0,0 -0.45614,-3.46768 3.30729,-3.49628 3.72963,-0.0283 3.68528,2.83482 3.68528,2.83482 l -0.37798,45.64063 c 0,0 0.11238,2.55894 -3.3073,2.36235 -2.64364,-0.15198 -3.21279,-2.74033 -3.21279,-2.74033 z"
           id="path5438"
           inkscape:connector-curvature="0"
           sodipodi:nodetypes="csccscc" />
      </g>
    </g>
    <g
       aria-label="CLIENT"
       transform="scale(0.26458333)"
       style="font-style:normal;font-weight:normal;font-size:106.66666412px;line-height:1.25;font-family:sans-serif;text-align:center;letter-spacing:20px;word-spacing:0px;text-anchor:middle;fill:#f3cd74;fill-opacity:1;stroke:none"
       id="flowRoot2105">
      <path
         d="m 226.1683,913.69596 v 11.09375 q -5.3125,-4.94791 -11.35417,-7.39583 -5.98958,-2.44792 -12.76042,-2.44792 -13.33333,0 -20.41666,8.17709 -7.08333,8.125 -7.08333,23.54166 0,15.36459 7.08333,23.54167 7.08333,8.125 20.41666,8.125 6.77084,0 12.76042,-2.44792 6.04167,-2.44792 11.35417,-7.39583 v 10.98958 q -5.52084,3.75 -11.71875,5.625 -6.14584,1.875 -13.02084,1.875 -17.65625,0 -27.81249,-10.78125 -10.15625,-10.83333 -10.15625,-29.53125 0,-18.75 10.15625,-29.53125 10.15624,-10.83333 27.81249,-10.83333 6.97917,0 13.125,1.875 6.19792,1.82292 11.61459,5.52083 z"
         style=""
         id="path2113" />
      <path
         d="m 262.52246,907.70638 h 10.52083 v 68.90625 h 37.86459 v 8.85416 h -48.38542 z"
         style=""
         id="path2115" />
      <path
         d="m 341.89746,907.70638 h 10.52083 v 77.76041 h -10.52083 z"
         style=""
         id="path2117" />
      <path
         d="m 393.35579,907.70638 h 49.16666 v 8.85417 h -38.64583 v 23.02083 h 37.03125 v 8.85417 h -37.03125 v 28.17708 h 39.58333 v 8.85416 h -50.10416 z"
         style=""
         id="path2119" />
      <path
         d="m 480.85579,907.70638 h 14.16666 l 34.47917,65.05208 v -65.05208 h 10.20833 v 77.76041 h -14.16666 l -34.47917,-65.05208 v 65.05208 h -10.20833 z"
         style=""
         id="path2121" />
      <path
         d="m 569.8662,907.70638 h 65.78124 v 8.85417 h -27.60416 v 68.90624 H 597.47036 V 916.56055 H 569.8662 Z"
         style=""
         id="path2123" />
    </g>
  </g>
</svg>
