<?xml version="1.0" encoding="UTF-8" standalone="no"?>
<!-- Created with Inkscape (http://www.inkscape.org/) -->

<svg
   xmlns:dc="http://purl.org/dc/elements/1.1/"
   xmlns:cc="http://creativecommons.org/ns#"
   xmlns:rdf="http://www.w3.org/1999/02/22-rdf-syntax-ns#"
   xmlns:svg="http://www.w3.org/2000/svg"
   xmlns="http://www.w3.org/2000/svg"
   xmlns:sodipodi="http://sodipodi.sourceforge.net/DTD/sodipodi-0.dtd"
   xmlns:inkscape="http://www.inkscape.org/namespaces/inkscape"
   width="210mm"
   height="297mm"
   viewBox="0 0 210 297"
   version="1.1"
   id="svg4677"
   inkscape:version="0.92.4 (5da689c313, 2019-01-14)"
   sodipodi:docname="leader.svg">
  <defs
     id="defs4671" />
  <sodipodi:namedview
     id="base"
     pagecolor="#ffffff"
     bordercolor="#666666"
     borderopacity="1.0"
     inkscape:pageopacity="0.0"
     inkscape:pageshadow="2"
     inkscape:zoom="0.70000001"
     inkscape:cx="381.43312"
     inkscape:cy="572.49327"
     inkscape:document-units="mm"
     inkscape:current-layer="layer1"
     showgrid="false"
     inkscape:window-width="1920"
     inkscape:window-height="1001"
     inkscape:window-x="-9"
     inkscape:window-y="-9"
     inkscape:window-maximized="1" />
  <metadata
     id="metadata4674">
    <rdf:RDF>
      <cc:Work
         rdf:about="">
        <dc:format>image/svg+xml</dc:format>
        <dc:type
           rdf:resource="http://purl.org/dc/dcmitype/StillImage" />
        <dc:title />
      </cc:Work>
    </rdf:RDF>
  </metadata>
  <g
     inkscape:label="Layer 1"
     inkscape:groupmode="layer"
     id="layer1">
    <g
       id="g2694"
       transform="translate(-2.6458333,-19.276786)">
      <path
         transform="scale(0.26458333)"
         id="circle3713-2-1"
         d="M 399.23828,89.392578 A 355.38629,355.38629 0 0 0 43.851562,444.7793 355.38629,355.38629 0 0 0 399.23828,800.16602 355.38629,355.38629 0 0 0 459.32422,795.0332 154.7048,154.7048 0 0 1 455.73242,762.75977 154.7048,154.7048 0 0 1 610.4375,608.05664 154.7048,154.7048 0 0 1 698.55078,635.6582 355.38629,355.38629 0 0 0 754.625,444.7793 355.38629,355.38629 0 0 0 399.23828,89.392578 Z"
         style="fill:none;stroke:#f3cd74;stroke-width:29.61637878;stroke-linecap:round;stroke-miterlimit:10;stroke-dasharray:none;stroke-opacity:1"
         inkscape:connector-curvature="0" />
      <path
         style="fill:none;stroke-width:3.91788721"
         d="M 7.6845799,19.73397 H 203.57893 V 215.62833 H 7.6845799 Z"
         id="rect3715-4-6"
         inkscape:connector-curvature="0" />
      <path
         id="path3717-7-0"
         transform="scale(0.26458333)"
         d="m 397.8457,184.0293 c -131.10794,2.41366 -146.92155,99.00517 -118.17968,209.61914 -5.10868,3.10964 -13.52068,13.00132 -11.41797,30.57812 3.93886,32.73997 17.32651,41.03256 25.82617,41.72852 3.25771,30.53359 23.39509,66.70753 34.23437,72.3789 0,21.81185 0.81428,38.4717 -1.34765,62.3418 -18.67259,50.19833 -114.56688,54.12273 -169.88867,102.5293 57.83911,58.23893 151.57242,99.89258 250.48828,99.89258 17.06713,0 34.65058,-2.32611 52.16406,-6.28321 a 154.7048,154.7048 0 0 1 -3.99219,-34.05468 154.7048,154.7048 0 0 1 59.96289,-122.20313 c -20.61063,-10.18784 -36.81914,-22.14145 -43.41015,-39.88086 -2.16193,-23.8701 -1.33399,-40.52995 -1.33399,-62.3418 10.80968,-5.67137 30.17867,-41.83049 33.45117,-72.3789 8.49967,-0.69596 21.90212,-8.98855 25.82618,-41.72852 2.11748,-17.5768 -6.29452,-27.46848 -11.41797,-30.57812 13.83042,-41.595 42.55687,-170.2749 -53.13086,-183.57227 -9.84718,-17.29546 -35.06442,-26.04687 -67.83399,-26.04687 z"
         style="fill:#f3cd74;fill-opacity:1;stroke-width:14.8077631"
         inkscape:connector-curvature="0" />
      <path
         inkscape:connector-curvature="0"
         id="path27"
         d="m 202.82164,201.81375 a 40.932312,40.932312 0 0 1 -40.93231,40.93231 40.932312,40.932312 0 0 1 -40.93231,-40.93231 40.932312,40.932312 0 0 1 40.93231,-40.93232 40.932312,40.932312 0 0 1 40.93231,40.93232 z"
         style="fill:none;stroke:#f3cd74;stroke-width:7.83599997;stroke-miterlimit:4;stroke-dasharray:none;stroke-opacity:1" />
      <path
         id="path4579"
         d="m 186.464,204.38518 c -0.22442,-0.15537 -0.48337,-0.22442 -0.74231,-0.17263 -0.25895,0.0518 -0.48337,0.18989 -0.63874,0.41431 l -0.88042,1.24295 c -0.31074,-0.1381 -0.63874,-0.24168 -0.984,-0.328 -0.34527,-0.0863 -0.67327,-0.15537 -1.01853,-0.20716 l -0.27621,-1.62273 c -0.0518,-0.27621 -0.1899,-0.48337 -0.39705,-0.63874 -0.22442,-0.15537 -0.46611,-0.20716 -0.74232,-0.15537 l -2.03705,0.36253 c -0.25895,0.0518 -0.46611,0.17263 -0.63874,0.39705 -0.15537,0.22442 -0.22442,0.46611 -0.17263,0.74232 l 0.25894,1.48463 c -0.328,0.1381 -0.63873,0.29347 -0.93221,0.48337 -0.29347,0.17263 -0.58694,0.37979 -0.84589,0.58695 l -1.38106,-0.94948 c -0.22442,-0.15537 -0.4661,-0.22442 -0.72505,-0.17263 -0.25895,0.0518 -0.48337,0.18989 -0.63874,0.41432 l -1.17389,1.67452 c -0.15537,0.22442 -0.22442,0.48337 -0.17263,0.74232 0.0518,0.27621 0.18989,0.48337 0.41431,0.63874 l 1.24295,0.88042 c -0.1381,0.31073 -0.24168,0.63874 -0.328,0.984 -0.0863,0.34526 -0.15537,0.67326 -0.20716,1.01853 l -1.62274,0.27621 c -0.27621,0.0518 -0.48336,0.18989 -0.63873,0.39705 -0.15537,0.22442 -0.20716,0.4661 -0.15537,0.74232 l 0.36253,2.03705 c 0.0518,0.25895 0.17263,0.46611 0.39705,0.63874 0.22442,0.15537 0.4661,0.22442 0.74231,0.17263 l 1.48464,-0.25895 c 0.1381,0.328 0.29347,0.63874 0.48337,0.93221 0.17263,0.29348 0.37979,0.58695 0.58694,0.86316 l -0.94947,1.36379 c -0.15537,0.22442 -0.22442,0.46611 -0.17263,0.72505 0.0518,0.25895 0.18989,0.48337 0.41431,0.63874 l 1.69179,1.19116 c 0.22443,0.15537 0.48337,0.20716 0.74232,0.15537 0.25895,-0.0518 0.48337,-0.17263 0.656,-0.39705 l 0.88042,-1.26022 c 0.31074,0.13811 0.63874,0.24169 0.984,0.328 0.34527,0.0863 0.67327,0.15537 1.01853,0.20716 l 0.27621,1.62274 c 0.0518,0.27621 0.1899,0.48337 0.39705,0.63874 0.22443,0.15537 0.46611,0.20716 0.74232,0.15537 l 2.03705,-0.36253 c 0.25895,-0.0518 0.46611,-0.17263 0.63874,-0.39705 0.15537,-0.22442 0.22442,-0.46611 0.17263,-0.74232 l -0.25894,-1.48463 c 0.328,-0.13811 0.63873,-0.29348 0.93221,-0.48337 0.29347,-0.17263 0.58695,-0.37979 0.86316,-0.58695 l 1.36379,0.94948 c 0.22442,0.15536 0.4661,0.22442 0.74231,0.17263 0.27621,-0.0518 0.48337,-0.1899 0.63874,-0.41432 l 1.19116,-1.69179 c 0.15537,-0.22442 0.20716,-0.48337 0.15537,-0.74232 -0.0518,-0.25894 -0.17263,-0.48336 -0.39706,-0.656 l -1.26021,-0.86315 c 0.13811,-0.31074 0.24169,-0.63874 0.328,-0.984 0.0863,-0.34527 0.15537,-0.67327 0.20716,-1.01853 l 1.62274,-0.27621 c 0.27621,-0.0518 0.48337,-0.1899 0.63874,-0.39706 0.15537,-0.22442 0.20715,-0.4661 0.15537,-0.74231 l -0.36253,-2.03706 c -0.0518,-0.25894 -0.17263,-0.4661 -0.39705,-0.63873 -0.22443,-0.15537 -0.46611,-0.22442 -0.74232,-0.17263 l -1.48463,0.25894 c -0.13811,-0.31073 -0.29348,-0.62147 -0.48337,-0.93221 -0.17263,-0.31074 -0.37979,-0.58695 -0.58695,-0.84589 l 0.94947,-1.38106 c 0.15537,-0.22442 0.22443,-0.4661 0.17264,-0.72505 -0.0518,-0.25895 -0.1899,-0.48337 -0.41432,-0.63874 l -1.67453,-1.17389 z m -5.92126,4.79916 c 0.53515,-0.0863 1.07031,-0.0863 1.60547,0.0345 0.5179,0.12084 0.984,0.328 1.41558,0.62147 0.41432,0.29348 0.77684,0.67326 1.07032,1.12211 0.29347,0.44884 0.48337,0.94947 0.56968,1.48463 0.0863,0.53516 0.0863,1.07032 -0.0345,1.60547 -0.12085,0.5179 -0.328,0.98401 -0.62148,1.41558 -0.29347,0.41432 -0.67326,0.77685 -1.1221,1.07032 -0.44885,0.29348 -0.94948,0.48337 -1.48464,0.56969 -0.53516,0.0863 -1.07031,0.0863 -1.60547,-0.0345 -0.5179,-0.12084 -0.984,-0.328 -1.41558,-0.62147 -0.41432,-0.29348 -0.77684,-0.67327 -1.07032,-1.12211 -0.29347,-0.44884 -0.48337,-0.94947 -0.56968,-1.48463 -0.0863,-0.53516 -0.0863,-1.07032 0.0345,-1.60548 0.12085,-0.51789 0.328,-0.984 0.62148,-1.41558 0.29347,-0.41431 0.67326,-0.77684 1.1221,-1.07031 0.44885,-0.29348 0.94948,-0.48337 1.48464,-0.56969 z m -15.67496,-24.20296 c -0.0863,-0.0863 -0.15537,-0.13811 -0.24169,-0.17264 -0.0691,-0.0345 -0.15537,-0.0518 -0.25894,-0.0518 -0.10358,0 -0.1899,0.0173 -0.25895,0.0518 -0.0691,0.0345 -0.15537,0.0863 -0.22442,0.15537 l -0.0173,0.0173 -1.95073,1.95073 c -0.37979,0.37979 -0.98401,0.43158 -1.41558,0.12085 -0.22443,-0.13811 -0.44885,-0.27621 -0.70779,-0.41432 -0.27622,-0.1381 -0.53516,-0.27621 -0.77685,-0.39705 -0.25894,-0.12084 -0.53516,-0.24169 -0.81137,-0.34527 -0.24168,-0.0863 -0.51789,-0.18989 -0.84589,-0.29347 -0.46611,-0.15537 -0.75958,-0.58695 -0.75958,-1.05305 v -2.98653 c 0,-0.10358 -0.0173,-0.20716 -0.0518,-0.27621 -0.0345,-0.0691 -0.0863,-0.15537 -0.15537,-0.20716 -0.0691,-0.0691 -0.1381,-0.12084 -0.20716,-0.15537 -0.0691,-0.0345 -0.17263,-0.0518 -0.27621,-0.0518 h -3.76337 c -0.10358,0 -0.18989,0.0173 -0.25895,0.0345 -0.0691,0.0345 -0.15536,0.0863 -0.24168,0.17263 -0.0691,0.0691 -0.12084,0.13811 -0.13811,0.20716 -0.0345,0.0691 -0.0518,0.17263 -0.0518,0.27621 v 2.74484 c 0,0.55242 -0.39705,1.00127 -0.91494,1.10485 -0.29348,0.0691 -0.56969,0.1381 -0.81137,0.20715 -0.27621,0.0863 -0.53516,0.17264 -0.81137,0.27621 -0.25895,0.10358 -0.53516,0.20716 -0.79411,0.34527 -0.27621,0.12084 -0.51789,0.25895 -0.75958,0.37979 -0.44884,0.24168 -0.96673,0.15537 -1.312,-0.1899 l -2.15789,-2.14063 c -0.0173,-0.0173 -0.0173,-0.0173 -0.0173,-0.0345 -0.0691,-0.069 -0.1381,-0.12084 -0.20716,-0.15537 -0.0691,-0.0345 -0.1381,-0.0345 -0.24168,-0.0345 -0.10358,0 -0.18989,0.0173 -0.25895,0.0518 -0.0863,0.0345 -0.15537,0.0863 -0.24168,0.17263 l -2.624,2.64126 c -0.0863,0.0863 -0.13811,0.15537 -0.17264,0.24169 -0.0345,0.0691 -0.0518,0.15537 -0.0518,0.25895 0,0.10358 0.0173,0.18989 0.0518,0.25894 0.0345,0.0691 0.0863,0.15537 0.15537,0.22443 v 0.0173 l 1.95074,1.95074 c 0.37979,0.37979 0.43158,0.984 0.12084,1.41558 -0.1381,0.22442 -0.27621,0.44884 -0.41431,0.70779 -0.13811,0.27621 -0.27621,0.53516 -0.39706,0.77684 -0.12084,0.25895 -0.24168,0.53516 -0.34526,0.81137 -0.0863,0.24168 -0.18989,0.51789 -0.29347,0.84589 -0.15537,0.46611 -0.58695,0.75958 -1.05306,0.75958 h -2.98652 c -0.10358,0 -0.20716,0.0173 -0.27621,0.0518 -0.0691,0.0345 -0.13811,0.0863 -0.20716,0.13811 -0.0691,0.069 -0.12085,0.1381 -0.13811,0.20716 -0.0345,0.0691 -0.0518,0.17263 -0.0518,0.27621 v 3.76337 c 0,0.10358 0.0173,0.18989 0.0345,0.25895 0.0345,0.0691 0.0863,0.15536 0.17263,0.24168 0.0691,0.0691 0.13811,0.12084 0.20716,0.13811 0.0691,0.0345 0.17263,0.0518 0.27621,0.0518 h 2.74484 c 0.55242,0 1.00127,0.39706 1.10485,0.91495 0.0691,0.29348 0.1381,0.56969 0.20715,0.79411 0.0863,0.27621 0.17264,0.55242 0.27621,0.82863 0.10358,0.25895 0.20716,0.53516 0.34527,0.81137 0.1381,0.29347 0.25895,0.55242 0.37979,0.79411 0.22442,0.44884 0.1381,0.96673 -0.20716,1.29473 l -2.14063,2.12337 -0.0173,0.0173 c -0.069,0.0691 -0.12084,0.1381 -0.15537,0.20715 -0.0345,0.0691 -0.0345,0.13811 -0.0345,0.24169 0,0.10358 0.0173,0.18989 0.0518,0.25895 0.0345,0.0863 0.0863,0.17263 0.17263,0.24168 l 2.60674,2.64127 c 0.0691,0.0691 0.15537,0.12084 0.24168,0.15536 0.0863,0.0345 0.17263,0.0518 0.27621,0.0518 0.10358,0 0.20716,-0.0173 0.29348,-0.0518 0.0691,-0.0345 0.15537,-0.0863 0.22442,-0.1381 l 1.93347,-1.968 c 0.37979,-0.39706 0.984,-0.43158 1.41558,-0.13811 0.22442,0.13811 0.44885,0.27621 0.70779,0.41432 0.27621,0.1381 0.53516,0.27621 0.77685,0.39705 0.25894,0.12084 0.53515,0.24169 0.81137,0.34526 0.24168,0.0863 0.51789,0.1899 0.84589,0.29348 0.46611,0.15537 0.75958,0.58695 0.75958,1.05305 v 2.98653 c 0,0.10358 0.0173,0.20716 0.0518,0.27621 0.0345,0.0691 0.0863,0.15537 0.1381,0.20716 0.13811,0.1381 0.29348,0.18989 0.50064,0.18989 h 3.76337 c 0.10358,0 0.18989,-0.0173 0.25895,-0.0345 0.0691,-0.0345 0.15536,-0.0863 0.24168,-0.17263 0.0691,-0.0691 0.12084,-0.13811 0.13811,-0.20716 0.0345,-0.0691 0.0518,-0.17263 0.0518,-0.27621 v -2.74485 c 0,-0.55242 0.39706,-1.00126 0.91495,-1.10484 0.29348,-0.0691 0.56969,-0.13811 0.81137,-0.20716 0.27621,-0.0863 0.53516,-0.17263 0.81137,-0.27621 0.25895,-0.10358 0.53516,-0.20716 0.81137,-0.34526 0.29347,-0.13811 0.55242,-0.25895 0.79411,-0.37979 0.44884,-0.22442 0.96673,-0.13811 1.29473,0.20716 l 2.12337,2.14063 0.0173,0.0173 c 0.0691,0.0691 0.1381,0.12084 0.20715,0.15537 0.0691,0.0345 0.15537,0.0345 0.25895,0.0345 0.10358,0 0.1899,-0.0173 0.25895,-0.0518 0.0691,-0.0345 0.1381,-0.0863 0.20716,-0.15537 0.0173,-0.0173 0.0345,-0.0345 0.0518,-0.0345 l 2.624,-2.58947 c 0.0691,-0.0691 0.12084,-0.15537 0.15537,-0.24169 0.0345,-0.0863 0.0518,-0.17263 0.0518,-0.27621 0,-0.10358 -0.0173,-0.20716 -0.0518,-0.29347 -0.0345,-0.0691 -0.0863,-0.15537 -0.13811,-0.22442 l -1.968,-1.93348 c -0.39705,-0.37979 -0.43158,-0.984 -0.1381,-1.41558 0.1381,-0.22442 0.27621,-0.44884 0.41431,-0.70779 0.13811,-0.27621 0.27621,-0.53516 0.39705,-0.77684 0.12085,-0.25895 0.24169,-0.53516 0.34527,-0.81137 0.0863,-0.24168 0.18989,-0.51789 0.29347,-0.84589 0.15537,-0.46611 0.58695,-0.75958 1.05305,-0.75958 h 2.98653 c 0.10358,0 0.20716,-0.0173 0.27621,-0.0518 0.0691,-0.0345 0.15537,-0.0863 0.20716,-0.13811 0.13811,-0.1381 0.1899,-0.29347 0.1899,-0.50063 v -3.76337 c 0,-0.10358 -0.0173,-0.1899 -0.0345,-0.25895 -0.0345,-0.0691 -0.0863,-0.15537 -0.17263,-0.24168 -0.0691,-0.0691 -0.13811,-0.12085 -0.20716,-0.13811 -0.069,-0.0345 -0.17263,-0.0518 -0.27621,-0.0518 h -2.74484 c -0.55243,0 -1.01853,-0.41431 -1.10485,-0.93221 -0.0691,-0.24168 -0.1381,-0.50063 -0.20715,-0.75958 -0.0863,-0.25895 -0.17264,-0.53516 -0.29348,-0.82863 0,-0.0173 -0.0173,-0.0345 -0.0173,-0.0518 -0.10358,-0.27621 -0.20716,-0.5179 -0.31074,-0.75958 -0.12084,-0.25895 -0.24168,-0.5179 -0.37979,-0.75958 -0.24168,-0.44884 -0.15537,-0.96674 0.1899,-1.312 l 2.14063,-2.1579 c 0,-0.0173 0.0173,-0.0173 0.0345,-0.0173 0.0691,-0.0691 0.12084,-0.13811 0.15536,-0.20716 0.0345,-0.0691 0.0345,-0.1381 0.0345,-0.24168 0,-0.10358 -0.0173,-0.1899 -0.0518,-0.25895 -0.0345,-0.0863 -0.0863,-0.15537 -0.17263,-0.24168 l -2.64127,-2.62401 z m 0.62147,-2.22695 c 0.36253,0.15537 0.67327,0.36252 0.94948,0.63873 l 2.64126,2.62401 h 0.0173 c 0.27621,0.27621 0.48337,0.58694 0.63874,0.93221 0.15537,0.36252 0.22442,0.72505 0.22442,1.1221 0,0.39706 -0.0863,0.77685 -0.22442,1.12211 -0.15537,0.34526 -0.36253,0.656 -0.656,0.91495 l -1.55368,1.57095 c 0.0173,0.0518 0.0518,0.10358 0.0691,0.15537 0.1381,0.29347 0.25895,0.60421 0.37979,0.89768 0,0.0173 0.0173,0.0345 0.0173,0.0518 0.12084,0.29347 0.22442,0.62147 0.328,0.96674 l 0.0345,0.12084 h 1.89895 c 0.39705,0 0.77684,0.069 1.1221,0.22442 0.34527,0.13811 0.656,0.36253 0.93221,0.63874 l 0.0173,0.0173 c 0.27621,0.27621 0.48337,0.58695 0.62147,0.93221 0.13811,0.34527 0.22442,0.72506 0.22442,1.10484 v 3.76338 c 0,0.81136 -0.27621,1.50189 -0.84589,2.07158 -0.27621,0.27621 -0.60421,0.50063 -0.94948,0.63873 -0.34526,0.13811 -0.72505,0.20716 -1.1221,0.20716 h -2.20969 c -0.0173,0.0518 -0.0518,0.12084 -0.069,0.17263 -0.12084,0.31074 -0.25895,0.62148 -0.39705,0.93221 -0.15537,0.328 -0.29348,0.63874 -0.44885,0.91495 l -0.0518,0.10358 1.34653,1.32927 0.0518,0.0518 c 0.27621,0.27621 0.46611,0.60421 0.60421,0.94947 0.13811,0.34526 0.20716,0.70779 0.20716,1.10484 0,0.37979 -0.0691,0.74232 -0.20716,1.08758 -0.1381,0.34527 -0.328,0.656 -0.60421,0.94948 l -0.0345,0.0345 -2.64126,2.624 c -0.27621,0.29348 -0.58695,0.50064 -0.93221,0.65601 -0.34527,0.15536 -0.72506,0.22442 -1.13937,0.22442 -0.39705,0 -0.77684,-0.0863 -1.13937,-0.22442 -0.36253,-0.15537 -0.67326,-0.37979 -0.93221,-0.65601 l -1.53642,-1.55368 c -0.0518,0.0345 -0.10358,0.0518 -0.17264,0.0691 -0.29347,0.12084 -0.60421,0.25895 -0.93221,0.37979 -0.31073,0.12084 -0.63873,0.22442 -0.96673,0.328 -0.0518,0.0173 -0.0863,0.0345 -0.13811,0.0345 v 1.88168 c 0,0.39706 -0.0691,0.77685 -0.22442,1.12211 -0.13811,0.34526 -0.36253,0.656 -0.63874,0.93221 l -0.0173,0.0173 c -0.27621,0.27621 -0.58695,0.48337 -0.93221,0.62148 -0.34527,0.1381 -0.72506,0.22442 -1.10485,0.22442 h -3.76337 c -0.81137,0 -1.50189,-0.27621 -2.07158,-0.8459 -0.27621,-0.27621 -0.50063,-0.60421 -0.63873,-0.94947 -0.13811,-0.34526 -0.20716,-0.72505 -0.20716,-1.12211 v -2.20968 c -0.0518,-0.0173 -0.12084,-0.0518 -0.17263,-0.069 -0.31074,-0.12085 -0.62148,-0.25895 -0.93222,-0.39706 -0.328,-0.15537 -0.63873,-0.29347 -0.91494,-0.44884 l -0.10358,-0.0518 -1.32927,1.34653 -0.0518,0.0518 c -0.27621,0.27621 -0.60421,0.4661 -0.94947,0.60421 -0.34526,0.1381 -0.70779,0.20716 -1.10484,0.20716 -0.37979,0 -0.74232,-0.0691 -1.08758,-0.20716 -0.34527,-0.13811 -0.656,-0.328 -0.94948,-0.60421 l -0.0345,-0.0345 -2.64127,-2.67579 c -0.27621,-0.27621 -0.48337,-0.58695 -0.63874,-0.93221 -0.15536,-0.36253 -0.22442,-0.72505 -0.22442,-1.12211 0,-0.39705 0.0863,-0.77684 0.22442,-1.1221 0.15537,-0.34527 0.37979,-0.656 0.656,-0.93221 l 1.55369,-1.53643 c -0.0345,-0.0518 -0.0518,-0.10358 -0.0691,-0.17263 -0.12085,-0.29347 -0.25895,-0.60421 -0.37979,-0.93221 -0.12084,-0.328 -0.24169,-0.63874 -0.328,-0.96674 l -0.0345,-0.1381 h -1.88168 c -0.39706,0 -0.77685,-0.0691 -1.12211,-0.22442 -0.34526,-0.13811 -0.656,-0.36253 -0.93221,-0.63874 l -0.0173,-0.0173 c -0.27621,-0.27622 -0.48336,-0.58695 -0.62147,-0.93222 -0.1381,-0.34526 -0.22442,-0.72505 -0.22442,-1.10484 v -3.76337 c 0,-0.39705 0.0691,-0.75958 0.20716,-1.12211 0.1381,-0.34526 0.36252,-0.656 0.63873,-0.94947 0.27622,-0.27621 0.60422,-0.50063 0.94948,-0.63874 0.34526,-0.1381 0.72505,-0.20716 1.12211,-0.20716 h 2.20968 c 0.0173,-0.0518 0.0518,-0.12084 0.0691,-0.17263 0.12085,-0.31073 0.25895,-0.62147 0.39706,-0.93221 0.15537,-0.328 0.29347,-0.63874 0.44884,-0.91495 l 0.0518,-0.10358 -1.32927,-1.34652 c -0.27621,-0.27621 -0.50063,-0.58695 -0.63873,-0.94948 -0.15537,-0.36252 -0.22442,-0.74231 -0.22442,-1.1221 0,-0.39706 0.069,-0.75958 0.22442,-1.12211 0.15537,-0.36253 0.36252,-0.67326 0.63873,-0.94947 l 2.62401,-2.64127 v -0.0173 c 0.27621,-0.27621 0.58694,-0.48337 0.93221,-0.63874 0.36252,-0.15537 0.72505,-0.22442 1.1221,-0.22442 0.39706,0 0.77685,0.0863 1.12211,0.22442 0.34526,0.15537 0.656,0.36253 0.91495,0.656 l 1.57095,1.55369 c 0.0518,-0.0173 0.10358,-0.0518 0.1381,-0.0691 0.29348,-0.1381 0.60421,-0.25894 0.93221,-0.39705 0.31074,-0.12084 0.63874,-0.22442 0.96674,-0.328 0.0518,-0.0173 0.0863,-0.0345 0.13811,-0.0345 v -1.88168 c 0,-0.39705 0.0691,-0.77684 0.22442,-1.12211 0.1381,-0.34526 0.36252,-0.656 0.63873,-0.93221 l 0.0173,-0.0173 c 0.27621,-0.27621 0.58694,-0.48337 0.93221,-0.62148 0.34526,-0.1381 0.72505,-0.22442 1.10484,-0.22442 h 3.76337 c 0.39706,0 0.75958,0.0691 1.12211,0.20716 0.36252,0.13811 0.67326,0.36253 0.94947,0.63874 0.27621,0.27621 0.50063,0.60421 0.63874,0.94947 0.13811,0.34527 0.20716,0.72506 0.20716,1.12211 v 2.20969 c 0.0518,0.0173 0.12084,0.0518 0.17263,0.0691 0.31074,0.12084 0.62147,0.25895 0.93221,0.39705 0.328,0.15537 0.63874,0.29347 0.91495,0.44884 l 0.10358,0.0518 1.34653,-1.32926 c 0.27621,-0.27621 0.58694,-0.50063 0.94947,-0.63874 0.36253,-0.15537 0.74232,-0.22442 1.12211,-0.22442 0.39705,0 0.75958,0.0691 1.1221,0.22442 z m -11.92885,6.99158 c 0.56969,0 1.13937,0.0518 1.69179,0.17263 0.53516,0.10358 1.07032,0.27621 1.60548,0.50064 0.50063,0.22442 0.984,0.48336 1.43284,0.77684 0.44884,0.29347 0.86316,0.63874 1.24295,1.01852 0.37979,0.37979 0.72505,0.79411 1.01852,1.26022 0.31074,0.44884 0.56969,0.93221 0.77685,1.43284 0.0173,0.0345 0.0173,0.0691 0.0345,0.0863 0.20716,0.50063 0.36253,1.01852 0.46611,1.51915 0.10358,0.55243 0.17263,1.12211 0.17263,1.69179 0,0.56969 -0.0518,1.13937 -0.17263,1.6918 -0.10358,0.53515 -0.27621,1.07031 -0.50063,1.60547 -0.22442,0.50063 -0.48337,0.984 -0.77685,1.43284 -0.31073,0.44885 -0.63873,0.86316 -1.01852,1.26021 -0.37979,0.37979 -0.79411,0.72506 -1.26021,1.01853 -0.44885,0.31074 -0.93221,0.56969 -1.43285,0.77684 -0.0345,0.0173 -0.069,0.0173 -0.0863,0.0345 -0.50063,0.20716 -1.01853,0.36253 -1.51916,0.46611 -0.55242,0.10358 -1.12211,0.17263 -1.69179,0.17263 -0.56969,0 -1.13937,-0.0518 -1.69179,-0.17263 -0.53516,-0.10358 -1.07032,-0.27621 -1.60548,-0.50064 -0.50063,-0.22442 -0.984,-0.48336 -1.43284,-0.77684 -0.44884,-0.29347 -0.86316,-0.63874 -1.24295,-1.01853 -0.37979,-0.37978 -0.72505,-0.7941 -1.01853,-1.26021 -0.31073,-0.44884 -0.56968,-0.93221 -0.77684,-1.43284 -0.0173,-0.0345 -0.0173,-0.0691 -0.0345,-0.0863 -0.20716,-0.50063 -0.36253,-1.01852 -0.46611,-1.51915 -0.10358,-0.55243 -0.17263,-1.12211 -0.17263,-1.6918 0,-0.56968 0.0518,-1.13936 0.17263,-1.69179 0.10358,-0.53515 0.27621,-1.07031 0.50063,-1.60547 0.22442,-0.50063 0.48337,-0.984 0.77684,-1.43284 0.29348,-0.44885 0.63874,-0.86316 1.01853,-1.26022 0.37979,-0.37978 0.79411,-0.72505 1.24295,-1.01852 0.44884,-0.31074 0.93221,-0.56969 1.43284,-0.77684 0.0345,-0.0173 0.0691,-0.0173 0.0863,-0.0345 0.50063,-0.20716 1.01853,-0.36253 1.51916,-0.46611 0.55242,-0.10358 1.1221,-0.17263 1.69179,-0.17263 z m 1.26021,2.34779 c -0.39705,-0.0863 -0.82863,-0.12084 -1.26021,-0.12084 -0.43158,0 -0.84589,0.0345 -1.26021,0.12084 -0.39705,0.0863 -0.75958,0.1899 -1.10484,0.328 -0.0173,0.0173 -0.0345,0.0173 -0.0691,0.0345 -0.39705,0.17263 -0.75958,0.36253 -1.08758,0.58695 -0.328,0.22442 -0.63873,0.4661 -0.91494,0.74231 -0.27621,0.27621 -0.53516,0.58695 -0.74232,0.91495 -0.22442,0.328 -0.41432,0.69053 -0.58695,1.08758 -0.15537,0.36253 -0.27621,0.75958 -0.36252,1.1739 -0.0863,0.39705 -0.12085,0.82863 -0.12085,1.26021 0,0.43158 0.0345,0.84589 0.12085,1.26021 0.0863,0.39705 0.18989,0.75958 0.328,1.10484 0.0173,0.0173 0.0173,0.0345 0.0345,0.0691 0.17263,0.39706 0.36253,0.75958 0.58695,1.08758 0.22442,0.328 0.46611,0.63874 0.74232,0.91495 0.27621,0.27621 0.58694,0.53516 0.91494,0.74232 0.328,0.22442 0.69053,0.41432 1.08758,0.58695 0.36253,0.15537 0.75958,0.27621 1.1739,0.36252 0.39705,0.0863 0.82863,0.12085 1.26021,0.12085 0.43158,0 0.8459,-0.0345 1.26021,-0.12085 0.39706,-0.0863 0.75958,-0.18989 1.10485,-0.328 0.0173,-0.0173 0.0345,-0.0173 0.0691,-0.0345 0.39705,-0.17263 0.75958,-0.36253 1.08758,-0.58695 0.328,-0.22442 0.63874,-0.46611 0.91495,-0.74232 0.27621,-0.27621 0.53515,-0.58695 0.74231,-0.91495 0.22442,-0.328 0.41432,-0.69052 0.58695,-1.08758 0.15537,-0.36252 0.27621,-0.75957 0.36253,-1.17389 0.0863,-0.39705 0.12084,-0.82863 0.12084,-1.26021 0,-0.43158 -0.0345,-0.8459 -0.12084,-1.26021 -0.0863,-0.39706 -0.1899,-0.75958 -0.328,-1.10485 -0.0173,-0.0173 -0.0173,-0.0345 -0.0345,-0.0691 -0.17263,-0.39705 -0.36253,-0.75958 -0.58695,-1.08758 -0.22442,-0.328 -0.4661,-0.63874 -0.74231,-0.91495 -0.27621,-0.27621 -0.58695,-0.53516 -0.91495,-0.74231 -0.328,-0.22442 -0.69053,-0.41432 -1.08758,-0.58695 -0.36253,-0.15537 -0.75958,-0.27621 -1.1739,-0.36253 z"
         inkscape:connector-curvature="0"
         style="clip-rule:evenodd;fill:#f3cd74;fill-opacity:1;fill-rule:nonzero;stroke-width:0.01726317;image-rendering:optimizeQuality;shape-rendering:geometricPrecision;text-rendering:geometricPrecision" />
    </g>
    <g
       aria-label="LEADER
"
       transform="matrix(0.26458333,0,0,0.26458333,0,6.4255952)"
       style="font-style:normal;font-weight:normal;font-size:106.66666412px;line-height:1.25;font-family:sans-serif;text-align:center;letter-spacing:20px;word-spacing:0px;text-anchor:middle;fill:#f3cd74;fill-opacity:1;stroke:none"
       id="flowRoot2696">
      <path
         d="m 146.55534,877.70638 h 10.52084 v 68.90625 h 37.86458 v 8.85416 h -48.38542 z"
         id="path2706"
         inkscape:connector-curvature="0" />
      <path
         d="m 225.93034,877.70638 h 49.16667 v 8.85417 h -38.64583 v 23.02083 h 37.03125 v 8.85417 h -37.03125 v 28.17708 h 39.58333 v 8.85416 h -50.10417 z"
         id="path2708"
         inkscape:connector-curvature="0" />
      <path
         d="m 339.41993,888.07096 -14.27084,38.69792 h 28.59375 z m -5.9375,-10.36458 h 11.92708 l 29.63542,77.76041 h -10.9375 l -7.08334,-19.94791 h -35.05208 l -7.08333,19.94791 h -11.09375 z"
         id="path2710"
         inkscape:connector-curvature="0" />
      <path
         d="m 416.86783,886.35221 v 60.46875 h 12.70834 q 16.09375,0 23.54166,-7.29166 7.5,-7.29167 7.5,-23.02084 0,-15.625 -7.5,-22.86458 -7.44791,-7.29167 -23.54166,-7.29167 z M 406.347,877.70638 h 21.61458 q 22.60417,0 33.17709,9.42708 10.57291,9.375 10.57291,29.375 0,20.10417 -10.625,29.53125 -10.625,9.42708 -33.125,9.42708 H 406.347 Z"
         id="path2712"
         inkscape:connector-curvature="0" />
      <path
         d="m 508.43034,877.70638 h 49.16667 v 8.85417 h -38.64583 v 23.02083 h 37.03125 v 8.85417 h -37.03125 v 28.17708 h 39.58333 v 8.85416 h -50.10417 z"
         id="path2714"
         inkscape:connector-curvature="0" />
      <path
         d="m 632.80534,919.00846 q 3.38542,1.14584 6.5625,4.89584 3.22917,3.75 6.45834,10.3125 l 10.67708,21.24999 h -11.30208 l -9.94792,-19.94791 q -3.85417,-7.8125 -7.5,-10.36458 -3.59375,-2.55209 -9.84375,-2.55209 h -11.45833 v 32.86458 h -10.52084 v -77.76041 h 23.75 q 13.33334,0 19.89584,5.57292 6.5625,5.57291 6.5625,16.82291 0,7.34375 -3.4375,12.1875 -3.38542,4.84375 -9.89584,6.71875 z m -26.35416,-32.65625 v 27.60417 h 13.22916 q 7.60417,0 11.45834,-3.48958 3.90625,-3.54167 3.90625,-10.36459 0,-6.82291 -3.90625,-10.26041 -3.85417,-3.48959 -11.45834,-3.48959 z"
         id="path2716"
         inkscape:connector-curvature="0" />
    </g>
  </g>
</svg>
