<?xml version="1.0" encoding="UTF-8" standalone="no"?>
<!-- Created with Inkscape (http://www.inkscape.org/) -->

<svg
   xmlns:dc="http://purl.org/dc/elements/1.1/"
   xmlns:cc="http://creativecommons.org/ns#"
   xmlns:rdf="http://www.w3.org/1999/02/22-rdf-syntax-ns#"
   xmlns:svg="http://www.w3.org/2000/svg"
   xmlns="http://www.w3.org/2000/svg"
   xmlns:sodipodi="http://sodipodi.sourceforge.net/DTD/sodipodi-0.dtd"
   xmlns:inkscape="http://www.inkscape.org/namespaces/inkscape"
   width="210mm"
   height="297mm"
   viewBox="0 0 210 297"
   version="1.1"
   id="svg4677"
   inkscape:version="0.92.4 (5da689c313, 2019-01-14)"
   sodipodi:docname="user2.svg">
  <defs
     id="defs4671" />
  <sodipodi:namedview
     id="base"
     pagecolor="#ffffff"
     bordercolor="#666666"
     borderopacity="1.0"
     inkscape:pageopacity="0.0"
     inkscape:pageshadow="2"
     inkscape:zoom="0.7154635"
     inkscape:cx="359.4019"
     inkscape:cy="708.91108"
     inkscape:document-units="mm"
     inkscape:current-layer="layer1"
     showgrid="false"
     inkscape:window-width="1920"
     inkscape:window-height="1001"
     inkscape:window-x="-9"
     inkscape:window-y="-9"
     inkscape:window-maximized="1" />
  <metadata
     id="metadata4674">
    <rdf:RDF>
      <cc:Work
         rdf:about="">
        <dc:format>image/svg+xml</dc:format>
        <dc:type
           rdf:resource="http://purl.org/dc/dcmitype/StillImage" />
        <dc:title></dc:title>
      </cc:Work>
    </rdf:RDF>
  </metadata>
  <g
     inkscape:label="Layer 1"
     inkscape:groupmode="layer"
     id="layer1">
    <flowRoot
       xml:space="preserve"
       id="flowRoot833"
       style="fill:black;fill-opacity:1;stroke:none;font-family:sans-serif;font-style:normal;font-weight:normal;font-size:16px;line-height:1.25;letter-spacing:0px;word-spacing:0px"><flowRegion
         id="flowRegion835"><rect
           id="rect837"
           width="733.62109"
           height="182.28755"
           x="29.044081"
           y="814.97321" /></flowRegion><flowPara
         id="flowPara839" /></flowRoot>    <flowRoot
       xml:space="preserve"
       id="flowRoot841"
       style="fill:black;fill-opacity:1;stroke:none;font-family:sans-serif;font-style:normal;font-weight:normal;font-size:16px;line-height:1.25;letter-spacing:0px;word-spacing:0px"><flowRegion
         id="flowRegion843"><rect
           id="rect845"
           width="796.00018"
           height="253.54829"
           x="0"
           y="799.27087" /></flowRegion><flowPara
         id="flowPara847" /></flowRoot>    <path
       inkscape:connector-curvature="0"
       id="rect3715-4-6"
       d="M 8.4241937,0.5040115 H 204.31854 V 196.39837 H 8.4241937 Z"
       style="fill:none;stroke-width:3.91788721" />
    <circle
       style="fill:none;stroke:#f3cd74;stroke-width:7.83580017;stroke-linecap:round;stroke-miterlimit:10;stroke-opacity:1"
       cx="106.37112"
       cy="98.451546"
       r="94.029602"
       stroke-miterlimit="10"
       id="circle3713-2" />
    <rect
       style="fill:none;stroke-width:3.91790009"
       y="0.50404078"
       x="8.4236135"
       height="195.895"
       width="195.895"
       id="rect3715-4" />
    <path
       inkscape:connector-curvature="0"
       d="m 125.69811,139.69919 c -0.57201,-6.31565 -0.35261,-10.72329 -0.35261,-16.49436 2.86007,-1.50055 7.98468,-11.06807 8.85054,-19.15069 2.24887,-0.18414 5.79457,-2.37817 6.83281,-11.040649 0.56026,-4.65054 -1.6651,-7.2677 -3.0207,-8.09046 3.65932,-11.00538 11.26005,-45.051931 -14.05742,-48.570205 -2.60541,-4.576107 -9.27759,-6.891586 -17.9479,-6.891586 -34.689085,0.638618 -38.873402,26.195079 -31.268759,55.461791 -1.351675,0.82276 -3.577042,3.43992 -3.0207,8.09046 1.042161,8.662479 4.583943,10.856509 6.832817,11.040649 0.861938,8.07871 6.190282,17.65014 9.058185,19.15069 0,5.77107 0.215484,10.17871 -0.356529,16.49436 -4.940472,13.28168 -30.312792,14.31993 -44.950067,27.12754 15.303318,15.4091 40.103625,26.43015 66.275193,26.43015 26.17157,0 56.93492,-20.663 62.05562,-26.30086 -14.54716,-12.92515 -39.97825,-13.92813 -44.93048,-27.25683 z"
       id="path3717-7"
       style="fill:#f3cd74;fill-opacity:1;stroke-width:3.91790009" />
    <flowRoot
       xml:space="preserve"
       id="flowRoot888"
       style="fill:black;fill-opacity:1;stroke:none;font-family:sans-serif;font-style:normal;font-weight:normal;font-size:16px;line-height:1.25;letter-spacing:0px;word-spacing:0px"><flowRegion
         id="flowRegion890"><rect
           id="rect892"
           width="578.64587"
           height="75.475548"
           x="164.92805"
           y="738.15344" /></flowRegion><flowPara
         id="flowPara894"></flowPara></flowRoot>    <g
       aria-label="WORKER"
       transform="matrix(0.26458333,0,0,0.26458333,0,15.53189)"
       style="font-style:normal;font-weight:normal;font-size:106.66667175px;line-height:1.25;font-family:sans-serif;text-align:center;letter-spacing:0px;word-spacing:0px;text-anchor:middle;fill:#f3cd74;fill-opacity:1;stroke:none"
       id="flowRoot896">
      <path
         d="m 113.58202,749.17708 h 10.625 l 16.35417,65.72917 16.30208,-65.72917 h 11.82292 l 16.35417,65.72917 16.30208,-65.72917 h 10.67708 l -19.53125,77.76042 h -13.22916 l -16.40625,-67.5 -16.56251,67.5 h -13.22916 z"
         style="letter-spacing:20px;fill:#f3cd74;fill-opacity:1"
         id="path904"
         inkscape:connector-curvature="0" />
      <path
         d="m 277.48828,756.3125 q -11.45834,0 -18.22917,8.54167 -6.71875,8.54167 -6.71875,23.28125 0,14.6875 6.71875,23.22917 6.77083,8.54166 18.22917,8.54166 11.45833,0 18.125,-8.54166 6.71875,-8.54167 6.71875,-23.22917 0,-14.73958 -6.71875,-23.28125 -6.66667,-8.54167 -18.125,-8.54167 z m 0,-8.54167 q 16.35416,0 26.14583,10.98959 9.79167,10.9375 9.79167,29.375 0,18.38542 -9.79167,29.375 -9.79167,10.9375 -26.14583,10.9375 -16.40625,0 -26.25,-10.9375 -9.79167,-10.9375 -9.79167,-29.375 0,-18.4375 9.79167,-29.375 9.84375,-10.98959 26.25,-10.98959 z"
         style="letter-spacing:20px;fill:#f3cd74;fill-opacity:1"
         id="path906"
         inkscape:connector-curvature="0" />
      <path
         d="m 386.75911,790.47917 q 3.38541,1.14583 6.5625,4.89583 3.22916,3.75 6.45833,10.3125 l 10.67708,21.25 h -11.30208 l -9.94792,-19.94791 q -3.85416,-7.8125 -7.5,-10.36459 -3.59375,-2.55208 -9.84375,-2.55208 H 360.40494 V 826.9375 H 349.8841 v -77.76042 h 23.75 q 13.33334,0 19.89584,5.57292 6.5625,5.57292 6.5625,16.82292 0,7.34375 -3.4375,12.1875 -3.38542,4.84375 -9.89583,6.71875 z m -26.35417,-32.65625 v 27.60417 h 13.22916 q 7.60417,0 11.45834,-3.48959 3.90625,-3.54166 3.90625,-10.36458 0,-6.82292 -3.90625,-10.26042 -3.85417,-3.48958 -11.45834,-3.48958 z"
         style="letter-spacing:20px;fill:#f3cd74;fill-opacity:1"
         id="path908"
         inkscape:connector-curvature="0" />
      <path
         d="m 444.05079,749.17708 h 10.52083 v 32.86459 l 34.89584,-32.86459 h 13.54167 l -38.59375,36.25001 41.35416,41.51041 h -13.85416 l -37.34376,-37.44791 v 37.44791 h -10.52083 z"
         style="letter-spacing:20px;fill:#f3cd74;fill-opacity:1"
         id="path910"
         inkscape:connector-curvature="0" />
      <path
         d="m 534.05079,749.17708 h 49.16667 v 8.85417 h -38.64584 v 23.02084 h 37.03126 v 8.85416 h -37.03126 v 28.17709 h 39.58334 v 8.85416 h -50.10417 z"
         style="letter-spacing:20px;fill:#f3cd74;fill-opacity:1"
         id="path912"
         inkscape:connector-curvature="0" />
      <path
         d="m 658.42579,790.47917 q 3.38542,1.14583 6.5625,4.89583 3.22917,3.75 6.45834,10.3125 l 10.67708,21.25 h -11.30208 l -9.94792,-19.94791 q -3.85417,-7.8125 -7.5,-10.36459 -3.59375,-2.55208 -9.84375,-2.55208 h -11.45834 v 32.86458 h -10.52083 v -77.76042 h 23.75 q 13.33334,0 19.89584,5.57292 6.5625,5.57292 6.5625,16.82292 0,7.34375 -3.4375,12.1875 -3.38542,4.84375 -9.89584,6.71875 z m -26.35417,-32.65625 v 27.60417 h 13.22917 q 7.60417,0 11.45834,-3.48959 3.90625,-3.54166 3.90625,-10.36458 0,-6.82292 -3.90625,-10.26042 -3.85417,-3.48958 -11.45834,-3.48958 z"
         style="letter-spacing:20px;fill:#f3cd74;fill-opacity:1"
         id="path914"
         inkscape:connector-curvature="0" />
    </g>
  </g>
</svg>
